<svg id="logo" version="1.1" width="400" height="400" viewBox="0 0 400 400" xmlns="http://www.w3.org/2000/svg" xmlns:xlink="http://www.w3.org/1999/xlink" ><g id="svgg"><path id="path0" d="M217.216 156.778 C 203.361 163.745,191.339 169.892,190.501 170.440 C 189.662 170.988,183.464 174.193,176.727 177.562 C 169.473 181.191,164.320 183.984,164.091 184.413 C 163.827 184.905,163.704 199.854,163.704 231.207 L 163.704 277.278 164.537 278.058 C 165.609 279.060,242.664 315.556,243.709 315.556 C 244.416 315.556,254.459 310.863,306.474 286.228 C 315.025 282.178,322.485 278.420,323.052 277.877 L 324.083 276.890 323.986 230.706 C 323.890 185.113,323.879 184.512,323.148 183.699 C 321.944 182.362,245.048 144.070,243.612 144.093 C 242.793 144.106,234.349 148.164,217.216 156.778 M278.575 167.870 C 297.689 177.495,313.325 185.454,313.321 185.556 C 313.317 185.657,297.652 193.616,278.511 203.241 L 243.708 220.742 208.706 203.242 C 189.455 193.617,173.708 185.659,173.713 185.556 C 173.725 185.338,242.987 150.435,243.485 150.397 C 243.670 150.382,259.460 158.245,278.575 167.870 M240.741 266.831 L 240.741 307.736 238.056 306.499 C 236.579 305.819,228.537 302.033,220.185 298.084 C 211.833 294.136,197.045 287.160,187.322 282.583 L 169.645 274.259 169.637 232.314 L 169.630 190.370 205.185 208.148 L 240.741 225.927 240.741 266.831 M317.687 232.285 L 317.593 274.199 311.481 277.066 C 308.120 278.642,292.162 286.178,276.019 293.813 L 246.667 307.693 246.667 266.716 L 246.667 225.739 281.944 208.075 C 301.347 198.360,317.348 190.402,317.502 190.391 C 317.655 190.380,317.739 209.232,317.687 232.285 " stroke="none" fill="#84f4ab" fill-rule="evenodd"></path><path id="path1" d="M38.996 55.055 C 36.383 55.981,33.704 58.794,33.704 60.612 C 33.704 62.678,34.616 63.885,39.630 68.449 C 52.484 80.151,65.202 93.041,72.065 101.326 C 92.678 126.205,105.340 148.720,113.500 175.002 C 114.436 178.014,115.129 180.550,115.041 180.638 C 114.442 181.237,98.388 177.960,89.815 175.489 C 86.963 174.667,84.296 173.908,83.889 173.803 C 80.541 172.939,65.924 167.528,57.713 164.112 C 51.598 161.569,50.472 161.422,48.345 162.893 C 44.750 165.378,46.070 169.582,55.327 185.110 C 57.184 188.226,59.270 191.726,59.962 192.888 C 72.194 213.414,101.944 253.121,119.824 272.782 C 147.294 302.989,165.565 317.218,187.648 325.600 C 219.428 337.663,263.716 332.882,294.731 314.040 C 296.041 313.244,297.190 312.593,297.283 312.593 C 297.776 312.593,307.420 305.884,310.935 303.096 C 315.568 299.421,324.911 290.230,328.777 285.544 C 340.092 271.827,346.287 256.511,348.319 237.222 C 349.222 228.653,349.235 211.615,348.340 208.777 C 348.264 208.533,348.112 207.417,348.003 206.296 C 344.268 167.771,323.728 127.920,298.369 110.000 C 292.841 106.094,274.520 97.047,272.111 97.035 C 271.867 97.034,271.167 96.771,270.556 96.452 C 268.432 95.342,251.972 89.997,241.111 86.891 C 189.801 72.214,113.448 59.092,57.778 55.383 C 55.843 55.254,52.343 54.992,50.000 54.802 C 44.149 54.327,40.838 54.403,38.996 55.055 M64.843 63.893 C 80.174 64.925,105.843 67.905,119.259 70.209 C 119.769 70.297,123.935 70.964,128.519 71.691 C 150.604 75.196,177.079 80.437,205.170 86.866 C 220.992 90.486,254.444 99.657,254.444 100.374 C 254.444 100.511,253.736 100.832,252.870 101.087 C 243.265 103.914,232.125 113.097,217.796 130.000 C 216.328 131.731,214.759 133.565,214.308 134.074 C 213.858 134.583,211.567 137.250,209.217 140.000 C 183.808 169.738,163.687 180.700,133.270 181.377 L 124.503 181.573 123.711 178.842 C 111.633 137.182,87.586 100.631,49.473 66.000 L 46.538 63.333 51.538 63.333 C 54.289 63.333,60.276 63.585,64.843 63.893 M272.786 108.334 C 304.278 114.707,331.290 152.893,337.759 200.185 C 338.177 203.241,338.607 206.324,338.714 207.037 C 339.250 210.592,339.580 225.813,339.241 231.296 C 337.433 260.491,328.498 277.348,305.926 294.153 C 266.234 323.703,217.605 331.175,181.252 313.308 C 164.994 305.317,147.070 284.545,141.150 266.834 C 137.813 256.851,136.659 251.118,132.988 226.296 C 130.429 208.992,129.262 202.104,127.748 195.376 C 127.153 192.731,126.667 190.523,126.667 190.469 C 126.667 190.415,128.208 190.368,130.093 190.365 C 138.030 190.351,146.895 189.448,153.889 187.940 C 158.313 186.987,163.704 185.198,163.704 184.683 C 163.704 183.663,165.812 182.447,179.074 175.814 C 186.611 172.044,193.111 168.652,193.519 168.276 C 193.926 167.900,194.926 167.099,195.741 166.496 C 200.413 163.036,211.081 151.712,222.901 137.669 C 245.401 110.934,255.701 104.877,272.786 108.334 M63.048 175.228 C 72.152 178.875,92.687 185.196,99.444 186.431 C 100.056 186.543,102.722 187.043,105.370 187.543 C 110.003 188.417,111.026 188.574,115.593 189.110 L 117.667 189.353 119.009 195.880 C 120.780 204.494,123.634 222.223,126.142 240.185 C 127.559 250.333,130.511 263.084,133.318 271.189 L 135.152 276.481 133.965 275.144 C 133.312 274.409,130.848 271.742,128.490 269.218 C 118.414 258.433,98.936 234.013,88.495 219.074 C 86.787 216.630,85.255 214.463,85.092 214.259 C 83.202 211.905,69.473 191.545,66.236 186.296 C 62.353 180.001,58.780 173.704,59.092 173.704 C 59.176 173.704,60.956 174.389,63.048 175.228 " stroke="none" fill="#1cacfc" fill-rule="evenodd"></path><path id="path2" d="M177.315 176.688 C 170.440 180.140,164.815 183.048,164.815 183.150 C 164.815 183.252,170.481 180.501,177.407 177.037 C 184.333 173.573,190.000 170.656,190.000 170.554 C 190.000 170.298,191.036 169.797,177.315 176.688 " stroke="none" fill="#2cb4f4" fill-rule="evenodd"></path><path id="path3" d="" stroke="none" fill="#7cecb4" fill-rule="evenodd"></path><path id="path4" d="" stroke="none" fill="#24acfc" fill-rule="evenodd"></path></g></svg>