<?xml version="1.0" standalone="no"?>
<!DOCTYPE svg PUBLIC "-//W3C//DTD SVG 20010904//EN"
 "http://www.w3.org/TR/2001/REC-SVG-20010904/DTD/svg10.dtd">
<svg version="1.0" xmlns="http://www.w3.org/2000/svg"
 width="700.000000pt" height="700.000000pt" viewBox="0 0 700.000000 700.000000"
 preserveAspectRatio="xMidYMid meet">
<metadata>
Created by potrace 1.11, written by Peter Selinger 2001-2013
</metadata>
<g transform="translate(0.000000,700.000000) scale(0.100000,-0.100000)"
fill="#000000" stroke="none">
<path d="M684 6034 c-46 -15 -94 -68 -94 -102 0 -25 -3 -23 339 -357 252 -247
412 -433 590 -688 143 -206 290 -478 379 -702 39 -98 112 -319 112 -338 0 -12
-66 -3 -220 29 -182 39 -407 106 -590 178 -308 121 -309 122 -354 92 -38 -25
-39 -75 -2 -158 41 -91 229 -409 349 -588 87 -129 356 -498 477 -654 98 -126
341 -426 374 -462 6 -7 54 -58 106 -114 449 -485 747 -714 1125 -863 135 -54
317 -95 500 -113 60 -6 334 -6 380 0 22 2 69 8 105 11 63 7 76 9 130 20 14 2
40 7 58 10 91 15 279 71 426 127 185 70 486 258 641 399 299 274 451 507 531
811 18 69 18 73 29 138 4 25 9 54 12 65 24 115 22 536 -2 660 -2 11 -7 42 -10
68 -45 381 -243 872 -481 1193 -112 153 -300 341 -385 387 -13 7 -43 24 -65
39 -274 176 -1018 411 -1839 579 -55 11 -109 22 -120 25 -52 10 -226 44 -280
53 -33 6 -71 13 -85 16 -14 3 -41 8 -60 11 -19 2 -42 6 -50 9 -8 2 -33 7 -55
10 -23 3 -52 7 -65 10 -14 3 -68 12 -120 20 -52 8 -120 20 -150 25 -30 5 -75
12 -100 15 -25 3 -107 15 -182 25 -75 11 -159 22 -185 25 -26 3 -59 8 -73 10
-14 2 -50 6 -80 10 -30 3 -71 8 -90 10 -19 2 -60 7 -90 10 -30 3 -75 8 -100
10 -77 8 -142 14 -225 20 -44 3 -96 8 -115 10 -165 20 -352 24 -396 9z m526
-158 c20 -2 76 -7 125 -11 50 -4 92 -8 95 -10 3 -1 41 -6 85 -10 44 -3 91 -8
105 -10 14 -2 52 -6 85 -10 33 -4 67 -9 75 -10 8 -2 44 -6 80 -10 36 -4 67 -8
70 -10 3 -2 30 -6 60 -10 45 -5 409 -64 500 -81 14 -2 39 -6 55 -9 17 -3 53
-10 80 -15 62 -12 96 -18 160 -30 229 -42 730 -151 970 -212 88 -22 165 -41
170 -42 6 -2 30 -8 55 -15 25 -7 54 -15 65 -17 11 -2 99 -27 195 -55 96 -28
183 -54 193 -56 13 -4 -11 -20 -81 -54 -183 -88 -303 -200 -653 -604 -383
-443 -646 -635 -988 -720 -135 -33 -213 -42 -418 -49 l-113 -4 -36 117 c-174
560 -480 1075 -922 1551 -114 122 -130 138 -297 299 l-108 104 179 -7 c98 -4
195 -8 214 -10z m3617 -786 c325 -89 632 -379 840 -795 37 -73 76 -165 116
-271 16 -42 65 -203 72 -238 42 -195 61 -303 72 -421 10 -96 9 -423 0 -517 -8
-73 -10 -88 -22 -148 -2 -14 -7 -37 -9 -52 -19 -114 -96 -302 -172 -418 l-49
-75 -2 50 c-2 28 -4 390 -5 806 -3 634 -5 759 -17 773 -16 19 -1277 651 -1354
678 l-48 17 -475 -239 c-261 -131 -474 -237 -474 -234 0 2 19 13 43 25 54 27
138 100 249 214 101 105 90 92 282 316 322 375 505 524 676 552 58 9 204 -3
277 -23z m44 -1027 c335 -169 605 -310 601 -314 -4 -4 -277 -143 -607 -310
l-599 -302 -603 302 c-332 166 -605 306 -608 311 -3 4 181 102 407 216 227
114 499 251 603 304 105 54 192 98 194 99 2 0 277 -137 612 -306z m-3586 -194
c110 -36 305 -95 348 -105 9 -2 25 -6 35 -9 53 -14 219 -45 299 -56 101 -14
93 -7 108 -89 3 -14 7 -38 11 -53 3 -16 7 -38 9 -50 1 -12 7 -49 13 -82 6 -33
14 -76 17 -95 3 -19 10 -57 15 -85 5 -27 11 -71 15 -96 3 -25 8 -57 10 -70 6
-36 14 -95 26 -174 36 -257 94 -518 153 -684 25 -69 35 -76 -107 83 -34 38
-67 74 -72 80 -6 6 -37 43 -70 82 -276 325 -527 661 -801 1071 -125 186 -254
397 -254 415 0 4 28 -5 63 -18 34 -14 116 -43 182 -65z m1735 -13 c0 -2 -7 -7
-16 -10 -8 -3 -12 -2 -9 4 6 10 25 14 25 6z m-40 -20 c0 -2 -7 -7 -16 -10 -8
-3 -12 -2 -9 4 6 10 25 14 25 6z m-73 -41 l-37 -26 -1 -92 c-1 -51 -2 -415 -3
-810 l-1 -719 25 -17 c26 -17 150 -79 343 -170 59 -28 155 -74 215 -102 212
-101 758 -356 788 -368 33 -13 65 -2 299 109 144 68 275 130 350 165 39 18
115 54 170 80 55 26 138 65 185 87 47 22 157 75 245 118 87 44 160 78 162 77
1 -2 -22 -27 -51 -57 -187 -193 -386 -334 -661 -470 -135 -67 -322 -142 -388
-155 -9 -2 -21 -6 -26 -9 -19 -12 -251 -58 -356 -71 -102 -13 -418 -14 -470
-2 -11 3 -40 8 -65 12 -85 14 -95 16 -135 27 -22 6 -44 11 -50 12 -42 8 -167
57 -253 98 -212 103 -407 284 -576 533 -82 120 -170 327 -191 447 -3 17 -8 34
-10 38 -2 4 -7 22 -10 41 -3 19 -8 41 -10 49 -4 14 -50 300 -96 600 -10 69
-21 139 -24 155 -2 17 -16 88 -30 159 -15 70 -25 129 -23 131 2 1 66 5 143 8
124 6 200 14 300 32 79 15 193 58 225 85 19 17 39 30 44 30 6 0 -6 -11 -27
-25z m1300 -748 c6 -6 6 -1417 0 -1423 -2 -2 -51 17 -108 44 -199 93 -225 105
-368 174 -79 37 -145 68 -146 68 -2 0 -82 38 -180 85 -97 47 -178 85 -180 85
-2 0 -60 27 -129 60 l-126 60 0 734 0 734 616 -308 c339 -170 618 -311 621
-313z m1351 -111 l1 -733 -102 -48 c-56 -27 -158 -75 -227 -108 -69 -33 -152
-72 -185 -87 -33 -15 -118 -56 -190 -90 -71 -34 -155 -73 -185 -87 -30 -14
-115 -54 -188 -89 -74 -35 -141 -65 -149 -66 -15 -3 -16 63 -17 706 -1 698 -1
709 19 722 11 7 290 148 620 313 330 165 600 300 601 300 1 1 1 -329 2 -733z"/>
</g>
</svg>
